# xmcd CD database file
#
# Track frame offsets:
#	150
#	9342
#	20800
#	33947
#	46122
#	58537
#	69530
#	82680
#	97752
#	109170
#
# Disc length: 1591 seconds
#
# Revision: 1
# Processed by: cddbd v1.4PL0 Copyright (c) Steve Scherf et al.
# Submitted via: CDex 1.40Release
#
DISCID=6a06350a
DTITLE=Various Artist - Sought After Soul CD 2
DYEAR=1900
DGENRE=Soul
TTITLE0=Danny Moore - Somebody New
TTITLE1=Johnny Rogers and The Nu Tones - Make A Change
TTITLE2=Arin Demain - Silent Treatment
TTITLE3=Johnny Summers - I'm Still Yours
TTITLE4=The Martells Featuring Clifford Russell - Where Can My Baby Be
TTITLE5=Dave Charles - Ain't Gonna Cry No More
TTITLE6=The Greater Experience - Don't Forget To Remember
TTITLE7=The Hollidays - I Lost You
TTITLE8=Melvin Davis - I Must Love You
TTITLE9=June Jackson - You're  Welcome
EXTD=ID3G: 42
EXTT0=
EXTT1=
EXTT2=
EXTT3=
EXTT4=
EXTT5=
EXTT6=
EXTT7=
EXTT8=
EXTT9=
PLAYORDER=
